<mxfile modified="2024-01-23T16:06:52.163Z" host="app.diagrams.net" agent="Mozilla/5.0 (Macintosh; Intel Mac OS X 10_15_7) AppleWebKit/537.36 (KHTML, like Gecko) Chrome/120.0.0.0 Safari/537.36" etag="4pTAKgrZmgSqn_V1OFMp" version="22.1.17" type="github">
  <diagram id="Ht1M8jgEwFfnCIfOTk4-" name="Page-1">
    <mxGraphModel dx="1363" dy="931" grid="1" gridSize="10" guides="1" tooltips="1" connect="1" arrows="1" fold="1" page="1" pageScale="1" pageWidth="1920" pageHeight="1200" math="0" shadow="0">
      <root>
        <mxCell id="0" />
        <mxCell id="1" parent="0" />
        <mxCell id="I7t4Qd40WJQr-O0MpKfy-16" value="" style="rounded=0;whiteSpace=wrap;html=1;labelBackgroundColor=none;fillColor=none;dashed=1;container=1;pointerEvents=0;collapsible=0;recursiveResize=0;" vertex="1" parent="1">
          <mxGeometry x="940" y="380" width="360" height="300" as="geometry" />
        </mxCell>
        <mxCell id="I7t4Qd40WJQr-O0MpKfy-12" value="Offer Management System" style="sketch=0;points=[[0,0,0],[0.25,0,0],[0.5,0,0],[0.75,0,0],[1,0,0],[0,1,0],[0.25,1,0],[0.5,1,0],[0.75,1,0],[1,1,0],[0,0.25,0],[0,0.5,0],[0,0.75,0],[1,0.25,0],[1,0.5,0],[1,0.75,0]];outlineConnect=0;fillColor=#b1ddf0;strokeColor=#10739e;dashed=0;verticalLabelPosition=bottom;verticalAlign=top;align=center;html=1;fontSize=12;fontStyle=0;aspect=fixed;shape=mxgraph.aws4.resourceIcon;resIcon=mxgraph.aws4.ec2;" vertex="1" parent="I7t4Qd40WJQr-O0MpKfy-16">
          <mxGeometry x="130" y="150" width="98" height="98" as="geometry" />
        </mxCell>
        <mxCell id="UEzPUAAOIrF-is8g5C7q-74" value="AWS VPC" style="points=[[0,0],[0.25,0],[0.5,0],[0.75,0],[1,0],[1,0.25],[1,0.5],[1,0.75],[1,1],[0.75,1],[0.5,1],[0.25,1],[0,1],[0,0.75],[0,0.5],[0,0.25]];outlineConnect=0;gradientColor=none;html=1;whiteSpace=wrap;fontSize=12;fontStyle=0;shape=mxgraph.aws4.group;grIcon=mxgraph.aws4.group_aws_cloud_alt;strokeColor=#232F3E;fillColor=none;verticalAlign=top;align=left;spacingLeft=30;fontColor=#232F3E;dashed=0;labelBackgroundColor=#ffffff;container=1;pointerEvents=0;collapsible=0;recursiveResize=0;" parent="1" vertex="1">
          <mxGeometry x="350" y="240" width="1040" height="740" as="geometry" />
        </mxCell>
        <mxCell id="I7t4Qd40WJQr-O0MpKfy-5" value="" style="rounded=0;whiteSpace=wrap;html=1;labelBackgroundColor=none;fillColor=none;dashed=1;container=1;pointerEvents=0;collapsible=0;recursiveResize=0;" vertex="1" parent="UEzPUAAOIrF-is8g5C7q-74">
          <mxGeometry x="100" y="480" width="900" height="160" as="geometry" />
        </mxCell>
        <mxCell id="I7t4Qd40WJQr-O0MpKfy-14" value="Onboarding Database" style="sketch=0;outlineConnect=0;fontColor=#232F3E;gradientColor=none;fillColor=#C925D1;strokeColor=none;dashed=0;verticalLabelPosition=bottom;verticalAlign=top;align=center;html=1;fontSize=12;fontStyle=0;aspect=fixed;pointerEvents=1;shape=mxgraph.aws4.rds_multi_az_db_cluster;" vertex="1" parent="I7t4Qd40WJQr-O0MpKfy-5">
          <mxGeometry x="99" y="34" width="78" height="78" as="geometry" />
        </mxCell>
        <mxCell id="I7t4Qd40WJQr-O0MpKfy-23" value="Offers &amp;amp; Campaigns DB" style="sketch=0;outlineConnect=0;fontColor=#232F3E;gradientColor=none;fillColor=#C925D1;strokeColor=none;dashed=0;verticalLabelPosition=bottom;verticalAlign=top;align=center;html=1;fontSize=12;fontStyle=0;aspect=fixed;pointerEvents=1;shape=mxgraph.aws4.rds_multi_az_db_cluster;" vertex="1" parent="I7t4Qd40WJQr-O0MpKfy-5">
          <mxGeometry x="768" y="34" width="78" height="78" as="geometry" />
        </mxCell>
        <mxCell id="UEzPUAAOIrF-is8g5C7q-107" value="" style="rounded=0;whiteSpace=wrap;html=1;labelBackgroundColor=none;fillColor=none;dashed=1;container=1;pointerEvents=0;collapsible=0;recursiveResize=0;" parent="UEzPUAAOIrF-is8g5C7q-74" vertex="1">
          <mxGeometry x="100" y="140" width="518" height="300" as="geometry" />
        </mxCell>
        <mxCell id="I7t4Qd40WJQr-O0MpKfy-3" value="" style="edgeStyle=orthogonalEdgeStyle;rounded=0;orthogonalLoop=1;jettySize=auto;html=1;" edge="1" parent="UEzPUAAOIrF-is8g5C7q-107" source="I7t4Qd40WJQr-O0MpKfy-1" target="I7t4Qd40WJQr-O0MpKfy-2">
          <mxGeometry relative="1" as="geometry" />
        </mxCell>
        <mxCell id="I7t4Qd40WJQr-O0MpKfy-1" value="CMS Application" style="sketch=0;points=[[0,0,0],[0.25,0,0],[0.5,0,0],[0.75,0,0],[1,0,0],[0,1,0],[0.25,1,0],[0.5,1,0],[0.75,1,0],[1,1,0],[0,0.25,0],[0,0.5,0],[0,0.75,0],[1,0.25,0],[1,0.5,0],[1,0.75,0]];outlineConnect=0;fillColor=#b1ddf0;strokeColor=#10739e;dashed=0;verticalLabelPosition=bottom;verticalAlign=top;align=center;html=1;fontSize=12;fontStyle=0;aspect=fixed;shape=mxgraph.aws4.resourceIcon;resIcon=mxgraph.aws4.ec2;" vertex="1" parent="UEzPUAAOIrF-is8g5C7q-107">
          <mxGeometry x="260" y="170" width="78" height="78" as="geometry" />
        </mxCell>
        <mxCell id="I7t4Qd40WJQr-O0MpKfy-2" value="CMS Database" style="sketch=0;outlineConnect=0;fontColor=#232F3E;gradientColor=none;fillColor=#C925D1;strokeColor=none;dashed=0;verticalLabelPosition=bottom;verticalAlign=top;align=center;html=1;fontSize=12;fontStyle=0;aspect=fixed;pointerEvents=1;shape=mxgraph.aws4.rds_multi_az_db_cluster;" vertex="1" parent="UEzPUAAOIrF-is8g5C7q-107">
          <mxGeometry x="260" y="374" width="78" height="78" as="geometry" />
        </mxCell>
        <mxCell id="I7t4Qd40WJQr-O0MpKfy-38" value="" style="edgeStyle=orthogonalEdgeStyle;rounded=0;orthogonalLoop=1;jettySize=auto;html=1;entryX=0.5;entryY=0;entryDx=0;entryDy=0;entryPerimeter=0;" edge="1" parent="UEzPUAAOIrF-is8g5C7q-107" source="I7t4Qd40WJQr-O0MpKfy-10" target="I7t4Qd40WJQr-O0MpKfy-1">
          <mxGeometry relative="1" as="geometry">
            <mxPoint x="299.00000000000045" y="126" as="targetPoint" />
          </mxGeometry>
        </mxCell>
        <mxCell id="I7t4Qd40WJQr-O0MpKfy-10" value="AWS ALB" style="outlineConnect=0;dashed=0;verticalLabelPosition=bottom;verticalAlign=top;align=center;html=1;shape=mxgraph.aws3.application_load_balancer;fillColor=#F58536;gradientColor=none;" vertex="1" parent="UEzPUAAOIrF-is8g5C7q-107">
          <mxGeometry x="264.5" y="-32" width="69" height="72" as="geometry" />
        </mxCell>
        <mxCell id="I7t4Qd40WJQr-O0MpKfy-35" value="" style="edgeStyle=orthogonalEdgeStyle;rounded=0;orthogonalLoop=1;jettySize=auto;html=1;" edge="1" parent="UEzPUAAOIrF-is8g5C7q-107" source="I7t4Qd40WJQr-O0MpKfy-13" target="I7t4Qd40WJQr-O0MpKfy-1">
          <mxGeometry relative="1" as="geometry" />
        </mxCell>
        <mxCell id="I7t4Qd40WJQr-O0MpKfy-13" value="Onboarding Application" style="sketch=0;points=[[0,0,0],[0.25,0,0],[0.5,0,0],[0.75,0,0],[1,0,0],[0,1,0],[0.25,1,0],[0.5,1,0],[0.75,1,0],[1,1,0],[0,0.25,0],[0,0.5,0],[0,0.75,0],[1,0.25,0],[1,0.5,0],[1,0.75,0]];outlineConnect=0;fillColor=#b1ddf0;strokeColor=#10739e;dashed=0;verticalLabelPosition=bottom;verticalAlign=top;align=center;html=1;fontSize=12;fontStyle=0;aspect=fixed;shape=mxgraph.aws4.resourceIcon;resIcon=mxgraph.aws4.ec2;" vertex="1" parent="UEzPUAAOIrF-is8g5C7q-107">
          <mxGeometry x="100" y="170" width="78" height="78" as="geometry" />
        </mxCell>
        <mxCell id="I7t4Qd40WJQr-O0MpKfy-39" value="" style="edgeStyle=orthogonalEdgeStyle;rounded=0;orthogonalLoop=1;jettySize=auto;html=1;exitX=0.5;exitY=1;exitDx=0;exitDy=0;exitPerimeter=0;" edge="1" parent="UEzPUAAOIrF-is8g5C7q-107" source="I7t4Qd40WJQr-O0MpKfy-10" target="I7t4Qd40WJQr-O0MpKfy-13">
          <mxGeometry relative="1" as="geometry">
            <mxPoint x="309" y="50" as="sourcePoint" />
            <mxPoint x="309" y="180" as="targetPoint" />
          </mxGeometry>
        </mxCell>
        <mxCell id="I7t4Qd40WJQr-O0MpKfy-49" value="Apache Kafka" style="text;html=1;strokeColor=none;fillColor=none;align=center;verticalAlign=middle;whiteSpace=wrap;rounded=0;" vertex="1" parent="UEzPUAAOIrF-is8g5C7q-107">
          <mxGeometry x="420" y="124" width="60" height="30" as="geometry" />
        </mxCell>
        <mxCell id="I7t4Qd40WJQr-O0MpKfy-64" value="AWS WAF" style="sketch=0;outlineConnect=0;strokeColor=#d79b00;fillColor=#ffe6cc;dashed=0;verticalLabelPosition=middle;verticalAlign=bottom;align=center;html=1;whiteSpace=wrap;fontSize=10;fontStyle=1;spacing=3;shape=mxgraph.aws4.productIcon;prIcon=mxgraph.aws4.waf;" vertex="1" parent="UEzPUAAOIrF-is8g5C7q-107">
          <mxGeometry x="-40" y="-40" width="80" height="100" as="geometry" />
        </mxCell>
        <mxCell id="I7t4Qd40WJQr-O0MpKfy-4" style="edgeStyle=orthogonalEdgeStyle;rounded=0;orthogonalLoop=1;jettySize=auto;html=1;exitX=0.5;exitY=1;exitDx=0;exitDy=0;" edge="1" parent="UEzPUAAOIrF-is8g5C7q-74" source="UEzPUAAOIrF-is8g5C7q-107" target="UEzPUAAOIrF-is8g5C7q-107">
          <mxGeometry relative="1" as="geometry" />
        </mxCell>
        <mxCell id="I7t4Qd40WJQr-O0MpKfy-34" value="" style="edgeStyle=orthogonalEdgeStyle;rounded=0;orthogonalLoop=1;jettySize=auto;html=1;exitX=0.487;exitY=0.8;exitDx=0;exitDy=0;exitPerimeter=0;" edge="1" parent="UEzPUAAOIrF-is8g5C7q-74" source="I7t4Qd40WJQr-O0MpKfy-9" target="I7t4Qd40WJQr-O0MpKfy-10">
          <mxGeometry relative="1" as="geometry">
            <mxPoint x="400" y="70" as="sourcePoint" />
          </mxGeometry>
        </mxCell>
        <mxCell id="I7t4Qd40WJQr-O0MpKfy-9" value="AWS WAF" style="sketch=0;outlineConnect=0;strokeColor=#d79b00;fillColor=#ffe6cc;dashed=0;verticalLabelPosition=middle;verticalAlign=bottom;align=center;html=1;whiteSpace=wrap;fontSize=10;fontStyle=1;spacing=3;shape=mxgraph.aws4.productIcon;prIcon=mxgraph.aws4.waf;" vertex="1" parent="UEzPUAAOIrF-is8g5C7q-74">
          <mxGeometry x="360" y="-30" width="80" height="100" as="geometry" />
        </mxCell>
        <mxCell id="I7t4Qd40WJQr-O0MpKfy-24" value="Aggregates DB" style="sketch=0;outlineConnect=0;fontColor=#232F3E;gradientColor=none;fillColor=#C925D1;strokeColor=none;dashed=0;verticalLabelPosition=bottom;verticalAlign=top;align=center;html=1;fontSize=12;fontStyle=0;aspect=fixed;pointerEvents=1;shape=mxgraph.aws4.rds_multi_az_db_cluster;" vertex="1" parent="UEzPUAAOIrF-is8g5C7q-74">
          <mxGeometry x="700" y="510" width="78" height="78" as="geometry" />
        </mxCell>
        <mxCell id="I7t4Qd40WJQr-O0MpKfy-30" value="" style="edgeStyle=orthogonalEdgeStyle;rounded=0;orthogonalLoop=1;jettySize=auto;html=1;entryX=0;entryY=0.5;entryDx=0;entryDy=0;entryPerimeter=0;" edge="1" parent="UEzPUAAOIrF-is8g5C7q-74" source="I7t4Qd40WJQr-O0MpKfy-1" target="I7t4Qd40WJQr-O0MpKfy-11">
          <mxGeometry relative="1" as="geometry">
            <mxPoint x="517" y="349.0000000000002" as="targetPoint" />
          </mxGeometry>
        </mxCell>
        <mxCell id="I7t4Qd40WJQr-O0MpKfy-36" value="" style="edgeStyle=orthogonalEdgeStyle;rounded=0;orthogonalLoop=1;jettySize=auto;html=1;" edge="1" parent="UEzPUAAOIrF-is8g5C7q-74" source="I7t4Qd40WJQr-O0MpKfy-13" target="I7t4Qd40WJQr-O0MpKfy-14">
          <mxGeometry relative="1" as="geometry">
            <mxPoint x="259.0666666666666" y="524.1391590909091" as="targetPoint" />
          </mxGeometry>
        </mxCell>
        <mxCell id="I7t4Qd40WJQr-O0MpKfy-11" value="" style="sketch=0;points=[[0,0,0],[0.25,0,0],[0.5,0,0],[0.75,0,0],[1,0,0],[0,1,0],[0.25,1,0],[0.5,1,0],[0.75,1,0],[1,1,0],[0,0.25,0],[0,0.5,0],[0,0.75,0],[1,0.25,0],[1,0.5,0],[1,0.75,0]];outlineConnect=0;fontColor=#232F3E;fillColor=#8C4FFF;strokeColor=#ffffff;dashed=0;verticalLabelPosition=bottom;verticalAlign=top;align=center;html=1;fontSize=12;fontStyle=0;aspect=fixed;shape=mxgraph.aws4.resourceIcon;resIcon=mxgraph.aws4.managed_streaming_for_kafka;" vertex="1" parent="UEzPUAAOIrF-is8g5C7q-74">
          <mxGeometry x="590" y="264" width="78" height="78" as="geometry" />
        </mxCell>
        <mxCell id="I7t4Qd40WJQr-O0MpKfy-43" value="" style="edgeStyle=orthogonalEdgeStyle;rounded=0;orthogonalLoop=1;jettySize=auto;html=1;entryX=1;entryY=0.5;entryDx=0;entryDy=0;entryPerimeter=0;endArrow=classic;endFill=1;" edge="1" parent="UEzPUAAOIrF-is8g5C7q-74" source="I7t4Qd40WJQr-O0MpKfy-41" target="I7t4Qd40WJQr-O0MpKfy-1">
          <mxGeometry relative="1" as="geometry">
            <mxPoint x="511" y="439" as="targetPoint" />
          </mxGeometry>
        </mxCell>
        <mxCell id="I7t4Qd40WJQr-O0MpKfy-47" value="" style="edgeStyle=orthogonalEdgeStyle;rounded=0;orthogonalLoop=1;jettySize=auto;html=1;entryX=1;entryY=0.75;entryDx=0;entryDy=0;entryPerimeter=0;startArrow=classic;startFill=1;" edge="1" parent="UEzPUAAOIrF-is8g5C7q-74" source="I7t4Qd40WJQr-O0MpKfy-41" target="I7t4Qd40WJQr-O0MpKfy-1">
          <mxGeometry relative="1" as="geometry">
            <mxPoint x="511" y="389" as="targetPoint" />
            <Array as="points">
              <mxPoint x="500" y="400" />
              <mxPoint x="500" y="369" />
            </Array>
          </mxGeometry>
        </mxCell>
        <mxCell id="I7t4Qd40WJQr-O0MpKfy-41" value="" style="sketch=0;points=[[0,0,0],[0.25,0,0],[0.5,0,0],[0.75,0,0],[1,0,0],[0,1,0],[0.25,1,0],[0.5,1,0],[0.75,1,0],[1,1,0],[0,0.25,0],[0,0.5,0],[0,0.75,0],[1,0.25,0],[1,0.5,0],[1,0.75,0]];outlineConnect=0;fontColor=#232F3E;fillColor=#E7157B;strokeColor=#ffffff;dashed=0;verticalLabelPosition=bottom;verticalAlign=top;align=center;html=1;fontSize=12;fontStyle=0;aspect=fixed;shape=mxgraph.aws4.resourceIcon;resIcon=mxgraph.aws4.express_workflow;" vertex="1" parent="UEzPUAAOIrF-is8g5C7q-74">
          <mxGeometry x="590" y="350" width="78" height="78" as="geometry" />
        </mxCell>
        <mxCell id="I7t4Qd40WJQr-O0MpKfy-44" value="" style="edgeStyle=orthogonalEdgeStyle;rounded=0;orthogonalLoop=1;jettySize=auto;html=1;entryX=0.75;entryY=1;entryDx=0;entryDy=0;entryPerimeter=0;exitX=0;exitY=0.75;exitDx=0;exitDy=0;exitPerimeter=0;startArrow=classic;startFill=1;" edge="1" parent="UEzPUAAOIrF-is8g5C7q-74" source="I7t4Qd40WJQr-O0MpKfy-41" target="I7t4Qd40WJQr-O0MpKfy-13">
          <mxGeometry relative="1" as="geometry">
            <mxPoint x="600" y="399" as="sourcePoint" />
            <mxPoint x="448" y="359" as="targetPoint" />
            <Array as="points">
              <mxPoint x="590" y="420" />
              <mxPoint x="259" y="420" />
            </Array>
          </mxGeometry>
        </mxCell>
        <mxCell id="I7t4Qd40WJQr-O0MpKfy-50" value="Temporal Workflow" style="text;html=1;strokeColor=none;fillColor=none;align=center;verticalAlign=middle;whiteSpace=wrap;rounded=0;" vertex="1" parent="UEzPUAAOIrF-is8g5C7q-74">
          <mxGeometry x="600" y="440" width="60" height="30" as="geometry" />
        </mxCell>
        <mxCell id="I7t4Qd40WJQr-O0MpKfy-54" value="" style="outlineConnect=0;dashed=0;verticalLabelPosition=bottom;verticalAlign=top;align=center;html=1;shape=mxgraph.aws3.vpc_nat_gateway;fillColor=#F58534;gradientColor=none;" vertex="1" parent="UEzPUAAOIrF-is8g5C7q-74">
          <mxGeometry x="1006" y="303" width="69" height="72" as="geometry" />
        </mxCell>
        <mxCell id="UEzPUAAOIrF-is8g5C7q-90" value="" style="edgeStyle=orthogonalEdgeStyle;rounded=0;orthogonalLoop=1;jettySize=auto;html=1;endArrow=open;endFill=0;strokeWidth=2;" parent="1" target="UEzPUAAOIrF-is8g5C7q-80" edge="1">
          <mxGeometry relative="1" as="geometry">
            <mxPoint x="448" y="349" as="sourcePoint" />
          </mxGeometry>
        </mxCell>
        <mxCell id="UEzPUAAOIrF-is8g5C7q-91" value="" style="edgeStyle=orthogonalEdgeStyle;rounded=0;orthogonalLoop=1;jettySize=auto;html=1;endArrow=open;endFill=0;strokeWidth=2;" parent="1" target="UEzPUAAOIrF-is8g5C7q-81" edge="1">
          <mxGeometry relative="1" as="geometry">
            <mxPoint x="558" y="349.0000000000002" as="sourcePoint" />
          </mxGeometry>
        </mxCell>
        <mxCell id="UEzPUAAOIrF-is8g5C7q-92" value="" style="edgeStyle=orthogonalEdgeStyle;rounded=0;orthogonalLoop=1;jettySize=auto;html=1;endArrow=open;endFill=0;strokeWidth=2;" parent="1" target="UEzPUAAOIrF-is8g5C7q-82" edge="1">
          <mxGeometry relative="1" as="geometry">
            <mxPoint x="678" y="349.0000000000002" as="sourcePoint" />
          </mxGeometry>
        </mxCell>
        <mxCell id="I7t4Qd40WJQr-O0MpKfy-26" value="" style="edgeStyle=orthogonalEdgeStyle;rounded=0;orthogonalLoop=1;jettySize=auto;html=1;exitX=0.5;exitY=1;exitDx=0;exitDy=0;exitPerimeter=0;" edge="1" parent="1" source="I7t4Qd40WJQr-O0MpKfy-12" target="I7t4Qd40WJQr-O0MpKfy-24">
          <mxGeometry relative="1" as="geometry">
            <mxPoint x="1079" y="630" as="sourcePoint" />
            <mxPoint x="999" y="716.9999999999998" as="targetPoint" />
            <Array as="points">
              <mxPoint x="1079" y="660" />
              <mxPoint x="990" y="660" />
            </Array>
          </mxGeometry>
        </mxCell>
        <mxCell id="I7t4Qd40WJQr-O0MpKfy-28" value="" style="edgeStyle=orthogonalEdgeStyle;rounded=0;orthogonalLoop=1;jettySize=auto;html=1;exitX=0.5;exitY=1;exitDx=0;exitDy=0;exitPerimeter=0;" edge="1" parent="1" source="I7t4Qd40WJQr-O0MpKfy-12" target="I7t4Qd40WJQr-O0MpKfy-23">
          <mxGeometry relative="1" as="geometry">
            <mxPoint x="1117" y="589.0000000000002" as="targetPoint" />
            <Array as="points">
              <mxPoint x="1079" y="660" />
              <mxPoint x="1157" y="660" />
            </Array>
          </mxGeometry>
        </mxCell>
        <mxCell id="I7t4Qd40WJQr-O0MpKfy-31" value="" style="edgeStyle=orthogonalEdgeStyle;rounded=0;orthogonalLoop=1;jettySize=auto;html=1;" edge="1" parent="1" source="I7t4Qd40WJQr-O0MpKfy-12" target="I7t4Qd40WJQr-O0MpKfy-11">
          <mxGeometry relative="1" as="geometry" />
        </mxCell>
        <mxCell id="I7t4Qd40WJQr-O0MpKfy-40" value="" style="edgeStyle=orthogonalEdgeStyle;rounded=0;orthogonalLoop=1;jettySize=auto;html=1;exitX=0.5;exitY=1;exitDx=0;exitDy=0;exitPerimeter=0;" edge="1" parent="1" source="I7t4Qd40WJQr-O0MpKfy-10" target="I7t4Qd40WJQr-O0MpKfy-12">
          <mxGeometry relative="1" as="geometry">
            <mxPoint x="700" y="420" as="sourcePoint" />
            <mxPoint x="549" y="560" as="targetPoint" />
            <Array as="points">
              <mxPoint x="749" y="490" />
              <mxPoint x="1109" y="490" />
            </Array>
          </mxGeometry>
        </mxCell>
        <mxCell id="I7t4Qd40WJQr-O0MpKfy-48" value="" style="edgeStyle=orthogonalEdgeStyle;rounded=0;orthogonalLoop=1;jettySize=auto;html=1;entryX=0;entryY=0.75;entryDx=0;entryDy=0;entryPerimeter=0;startArrow=classic;startFill=1;" edge="1" parent="1" source="I7t4Qd40WJQr-O0MpKfy-41" target="I7t4Qd40WJQr-O0MpKfy-12">
          <mxGeometry relative="1" as="geometry" />
        </mxCell>
        <mxCell id="I7t4Qd40WJQr-O0MpKfy-52" value="Poshvine" style="rounded=0;whiteSpace=wrap;html=1;fontSize=16;fillColor=#d5e8d4;strokeColor=#82b366;" vertex="1" parent="1">
          <mxGeometry x="1500" y="500" width="120" height="60" as="geometry" />
        </mxCell>
        <mxCell id="I7t4Qd40WJQr-O0MpKfy-53" value="Collinson" style="rounded=0;whiteSpace=wrap;html=1;fontSize=16;fillColor=#d5e8d4;strokeColor=#82b366;" vertex="1" parent="1">
          <mxGeometry x="1500" y="590" width="120" height="60" as="geometry" />
        </mxCell>
        <mxCell id="I7t4Qd40WJQr-O0MpKfy-55" value="" style="edgeStyle=orthogonalEdgeStyle;rounded=0;orthogonalLoop=1;jettySize=auto;html=1;" edge="1" parent="1" source="I7t4Qd40WJQr-O0MpKfy-54" target="I7t4Qd40WJQr-O0MpKfy-53">
          <mxGeometry relative="1" as="geometry" />
        </mxCell>
        <mxCell id="I7t4Qd40WJQr-O0MpKfy-56" value="" style="edgeStyle=orthogonalEdgeStyle;rounded=0;orthogonalLoop=1;jettySize=auto;html=1;" edge="1" parent="1" source="I7t4Qd40WJQr-O0MpKfy-54" target="I7t4Qd40WJQr-O0MpKfy-53">
          <mxGeometry relative="1" as="geometry" />
        </mxCell>
        <mxCell id="I7t4Qd40WJQr-O0MpKfy-57" style="edgeStyle=orthogonalEdgeStyle;rounded=0;orthogonalLoop=1;jettySize=auto;html=1;entryX=0;entryY=0.5;entryDx=0;entryDy=0;" edge="1" parent="1" source="I7t4Qd40WJQr-O0MpKfy-54" target="I7t4Qd40WJQr-O0MpKfy-52">
          <mxGeometry relative="1" as="geometry" />
        </mxCell>
        <mxCell id="I7t4Qd40WJQr-O0MpKfy-58" style="edgeStyle=orthogonalEdgeStyle;rounded=0;orthogonalLoop=1;jettySize=auto;html=1;entryX=0;entryY=0.5;entryDx=0;entryDy=0;entryPerimeter=0;" edge="1" parent="1" source="I7t4Qd40WJQr-O0MpKfy-12" target="I7t4Qd40WJQr-O0MpKfy-54">
          <mxGeometry relative="1" as="geometry" />
        </mxCell>
        <mxCell id="I7t4Qd40WJQr-O0MpKfy-59" value="ValueFirst" style="rounded=0;whiteSpace=wrap;html=1;fontSize=16;fillColor=#d5e8d4;strokeColor=#82b366;" vertex="1" parent="1">
          <mxGeometry x="1500" y="680" width="120" height="60" as="geometry" />
        </mxCell>
        <mxCell id="I7t4Qd40WJQr-O0MpKfy-60" style="edgeStyle=orthogonalEdgeStyle;rounded=0;orthogonalLoop=1;jettySize=auto;html=1;entryX=0;entryY=0.5;entryDx=0;entryDy=0;" edge="1" parent="1" source="I7t4Qd40WJQr-O0MpKfy-54" target="I7t4Qd40WJQr-O0MpKfy-59">
          <mxGeometry relative="1" as="geometry" />
        </mxCell>
        <mxCell id="I7t4Qd40WJQr-O0MpKfy-61" style="edgeStyle=orthogonalEdgeStyle;rounded=0;orthogonalLoop=1;jettySize=auto;html=1;" edge="1" parent="1" source="I7t4Qd40WJQr-O0MpKfy-1">
          <mxGeometry relative="1" as="geometry">
            <mxPoint x="1510" y="730" as="targetPoint" />
            <Array as="points">
              <mxPoint x="700" y="730" />
              <mxPoint x="1500" y="730" />
            </Array>
          </mxGeometry>
        </mxCell>
        <mxCell id="I7t4Qd40WJQr-O0MpKfy-62" value="External Services" style="text;html=1;strokeColor=none;fillColor=none;align=center;verticalAlign=middle;whiteSpace=wrap;rounded=0;" vertex="1" parent="1">
          <mxGeometry x="1430" y="470" width="60" height="30" as="geometry" />
        </mxCell>
        <mxCell id="I7t4Qd40WJQr-O0MpKfy-69" value="" style="edgeStyle=orthogonalEdgeStyle;rounded=0;orthogonalLoop=1;jettySize=auto;html=1;" edge="1" parent="1" source="I7t4Qd40WJQr-O0MpKfy-65" target="I7t4Qd40WJQr-O0MpKfy-68">
          <mxGeometry relative="1" as="geometry" />
        </mxCell>
        <mxCell id="I7t4Qd40WJQr-O0MpKfy-65" value="&lt;font style=&quot;font-size: 16px;&quot;&gt;NPCI&lt;/font&gt;" style="rounded=1;whiteSpace=wrap;html=1;" vertex="1" parent="1">
          <mxGeometry x="40" y="360" width="120" height="60" as="geometry" />
        </mxCell>
        <mxCell id="I7t4Qd40WJQr-O0MpKfy-70" style="edgeStyle=orthogonalEdgeStyle;rounded=0;orthogonalLoop=1;jettySize=auto;html=1;" edge="1" parent="1" source="I7t4Qd40WJQr-O0MpKfy-68" target="I7t4Qd40WJQr-O0MpKfy-64">
          <mxGeometry relative="1" as="geometry" />
        </mxCell>
        <mxCell id="I7t4Qd40WJQr-O0MpKfy-68" value="&lt;font style=&quot;font-size: 16px;&quot;&gt;Card Switch&lt;/font&gt;" style="rounded=1;whiteSpace=wrap;html=1;" vertex="1" parent="1">
          <mxGeometry x="210" y="360" width="120" height="60" as="geometry" />
        </mxCell>
      </root>
    </mxGraphModel>
  </diagram>
</mxfile>
